<svg id="Layer_1" enable-background="new 0 0 66 66" viewBox="0 0 66 66" xmlns="http://www.w3.org/2000/svg"><g><path d="m34.3 29.89c6.83 0 12.39-6.24 12.39-13.91 0-7.66-5.56-13.9-12.39-13.9s-12.4 6.24-12.4 13.9c0 7.67 5.56 13.91 12.4 13.91zm0-25.91c5.79 0 10.49 5.38 10.49 12s-4.71 12.01-10.49 12.01c-5.79 0-10.49-5.39-10.49-12.01-.01-6.61 4.7-12 10.49-12z"/><path d="m63.99 53.03c0-.02 0-.04 0-.06l-.01-.24c0-.1-.01-.2-.02-.3-.26-4.01-2.39-8.26-5.58-11.09-.48-.42-1-.81-1.54-1.19-.23-1.55-.88-2.98-1.88-4.1-1.31-1.46-3.11-2.26-5.06-2.26h-31.73c-1.95 0-3.74.8-5.06 2.26-1.49 1.65-2.2 3.97-1.95 6.37l.02.15c-1.16.82-2.29 1.68-3.37 2.62-2.29 1.98-5.38 5.08-5.78 9.09-.25 2.62 1.07 4.9 2.53 6.99 1.03 1.46 4.26 2.33 10.26 2.64-.02-.05-.03-.1-.06-.15l39.06-.02c.44 0 .8-.31.91-.73 2.26-.34 4.56-1.18 6.33-2.78 1.97-1.78 2.99-4.27 2.93-7.2zm-57.87 7.15c-1.45-2.06-2.37-3.82-2.19-5.71.33-3.34 3.09-6.07 5.13-7.84.76-.66 1.55-1.27 2.35-1.86l1.79 17.15c-4.8-.36-6.6-1.05-7.08-1.74zm8.98 1.69-2.05-19.64c-.19-1.87.34-3.65 1.47-4.9.95-1.05 2.24-1.63 3.65-1.63h31.73c1.4 0 2.7.58 3.65 1.63 1.12 1.25 1.66 3.03 1.47 4.88l-2.05 19.64zm39.86-.8 1.93-18.49c.08.06.16.12.24.19 2.82 2.51 4.72 6.26 4.94 9.8l.01.24c0 .09.01.18.01.28.04 2.39-.74 4.32-2.31 5.75-1.33 1.21-3.06 1.9-4.82 2.23z"/><path d="m22.03 50.08c-.27-.27-.27-.72 0-.99l5.25-5.25c.37-.37.37-.97 0-1.34s-.97-.37-1.34 0l-5.25 5.25c-1.01 1.01-1.01 2.66 0 3.68l6.24 6.24c.19.19.43.28.67.28s.49-.09.67-.28c.37-.37.37-.97 0-1.34z"/><path d="m42.65 42.49c-.37-.37-.97-.37-1.34 0s-.37.97 0 1.34l5.25 5.25c.27.27.27.72 0 .99l-6.24 6.24c-.37.37-.37.97 0 1.34.19.19.43.28.67.28s.49-.09.67-.28l6.24-6.24c1.01-1.01 1.01-2.66 0-3.68z"/><path d="m37.3 42.41c-.48-.2-1.04.02-1.25.5-.56 1.32-1.19 3.04-1.86 4.87-1.06 2.92-2.26 6.22-3.63 9.09-.23.47-.02 1.04.45 1.27.13.06.27.09.41.09.36 0 .7-.2.86-.54 1.4-2.95 2.62-6.3 3.69-9.26.66-1.8 1.28-3.51 1.82-4.78.21-.48-.01-1.04-.49-1.24z"/></g></svg>